Coordinates
version=1
nRows=11
nColumns=36
inDegrees=yes

Units are S.I. units (second, meters, Newtons, ...)
If the header above contains a line with 'inDegrees', this indicates whether rotational values are in degrees (yes) or radians (no).

endheader
time	pelvis_tilt	pelvis_list	pelvis_rotation	pelvis_tx	pelvis_ty	pelvis_tz	hip_flexion_r	hip_adduction_r	hip_rotation_r	knee_angle_r	knee_angle_r_beta	ankle_angle_r	subtalar_angle_r	mtp_angle_r	hip_flexion_l	hip_adduction_l	hip_rotation_l	knee_angle_l	knee_angle_l_beta	ankle_angle_l	subtalar_angle_l	mtp_angle_l	lumbar_extension	lumbar_bending	lumbar_rotation	arm_flex_r	arm_add_r	arm_rot_r	elbow_flex_r	pro_sup_r	arm_flex_l	arm_add_l	arm_rot_l	elbow_flex_l	pro_sup_l
      3.48333330	     -3.09482044	      0.09379092	     -0.26494053	      0.45021741	      0.91147411	     -0.05469409	      0.77925949	     -1.18144116	     -4.83068231	      0.47719096	      0.00832855	      4.28991289	     -4.89208588	     -7.49999987	      0.65259245	     -0.12481330	      0.52191259	      0.29077343	      0.00507495	      3.47113368	     -2.91207270	     -7.49999987	     -5.07130591	      0.94456498	      1.41944464	      1.15910359	     -9.41857909	      9.69560806	     31.10827594	     72.21695750	     -0.75246078	    -10.25372065	     14.33868756	     33.65799879	     80.78135196
      3.48750000	     -2.97651019	      0.06306740	     -0.24858342	      0.45066579	      0.91179844	     -0.05583878	      0.66479451	     -1.15379329	     -4.83384058	      0.46763699	      0.00816181	      4.31844363	     -4.89591248	     -7.49999987	      0.53216305	     -0.17709799	      0.63187795	      0.28133887	      0.00491029	      3.50256885	     -2.92378526	     -7.49999987	     -5.21842454	      0.94925664	      1.38296552	      1.07863438	     -9.40649033	      9.52918581	     31.24158959	     71.20936985	     -0.86193844	    -10.27033619	     14.29620140	     33.73663676	     79.13025715
      3.49166670	     -2.99128180	      0.03075960	     -0.26411127	      0.44945414	      0.91090944	     -0.05252678	      0.73206113	     -1.07979784	     -4.70592757	      0.47146707	      0.00822865	      4.32768176	     -4.97595233	     -7.49999987	      0.56986797	     -0.26273056	      0.58432432	      0.27193739	      0.00474620	      3.66502501	     -2.63288201	     -7.49999987	     -5.16341596	      0.91230044	      1.39241458	      1.06322351	     -9.36511038	      9.56063136	     31.05286107	     70.82990329	     -0.91178322	    -10.38760261	     14.41349192	     33.61373841	     78.52079231
      3.49583330	     -2.93756149	     -0.01195245	     -0.17694304	      0.44894047	      0.91063549	     -0.05267755	      0.69886301	     -1.00640508	     -4.76909518	      0.47492404	      0.00828899	      4.38565311	     -4.94544552	     -7.49999987	      0.55483926	     -0.35363095	      0.77317550	      0.26750197	      0.00466879	      3.71510320	     -2.59202325	     -7.49999987	     -5.24552973	      0.91094491	      1.31831424	      1.07237068	     -9.31981179	      9.56477974	     31.01275547	     70.42490747	     -0.94031754	    -10.46693045	     14.52027009	     33.58462382	     77.87872024
      3.50000000	     -2.85920270	     -0.04373580	     -0.15271067	      0.44931892	      0.91024025	     -0.05196573	      0.62644422	     -0.94541594	     -4.60154795	      0.49120692	      0.00857318	      4.32787450	     -5.08632330	     -7.49999987	      0.48394156	     -0.44814027	      0.77445975	      0.26283313	      0.00458730	      3.77557394	     -2.43541631	     -7.49999987	     -5.31443699	      0.87166355	      1.33316760	      0.99375669	     -9.27293918	      9.51394437	     31.02781974	     69.64320100	     -1.04138298	    -10.57976851	     14.57391940	     33.66197161	     76.61252389
      3.50416670	     -2.86077924	     -0.04420501	     -0.11244775	      0.45093026	      0.91159922	     -0.05584050	      0.63547883	     -0.97085712	     -4.61937806	      0.53344534	      0.00931038	      4.30851181	     -5.10267447	     -7.49999987	      0.48190819	     -0.45129062	      0.78127671	      0.26601848	      0.00464290	      3.79801630	     -2.43658119	     -7.49999987	     -5.32158099	      0.88696579	      1.34980588	      0.94177678	     -9.31204674	      9.51359308	     30.99463031	     69.64731493	     -1.13316189	    -10.58959269	     14.58678266	     33.62909813	     76.62210374
      3.50833330	     -2.92753568	     -0.05296079	     -0.03747974	      0.44968986	      0.91467029	     -0.05383278	      0.70377115	     -0.94377886	     -4.74784878	      0.53191172	      0.00928361	      4.05765637	     -5.21138038	     -7.49999987	      0.56174009	     -0.47880186	      0.77331048	      0.25666252	      0.00447961	      3.82847692	     -2.12935272	     -7.49999987	     -5.07799799	      0.92121694	      1.29019221	      0.72155579	     -9.36486050	      9.47217367	     31.01325034	     69.30197060	     -1.40970430	    -10.62797203	     14.69563429	     33.65774847	     76.08885180
      3.51250000	     -2.94172345	     -0.05488243	      0.05258842	      0.44910483	      0.91081742	     -0.05107936	      0.74696496	     -0.88735552	     -4.55192973	      0.54607500	      0.00953081	      4.02106640	     -5.56719886	     -7.49999987	      0.60789310	     -0.53335921	      0.99608862	      0.25442883	      0.00444062	      3.84145548	     -2.23070684	     -7.49999987	     -4.95526312	      0.84272305	      1.23052640	      0.82672298	     -9.26171507	      9.74887205	     30.28889469	     69.35805119	     -1.33312884	    -10.77853825	     15.23281507	     33.16075504	     76.26231567
      3.51666670	     -2.79963573	     -0.08166550	      0.16810856	      0.44941945	      0.91300710	     -0.05083154	      0.59092032	     -0.80262727	     -4.68454261	      0.55631158	      0.00970947	      4.05611383	     -5.44066599	     -7.49999987	      0.48410739	     -0.63060356	      1.05861648	      0.24774774	      0.00432401	      3.89369231	     -1.95084693	     -7.49999987	     -5.18702707	      0.80066411	      1.16957233	      0.64174705	     -9.21937042	      9.55345135	     30.66812304	     68.87896061	     -1.47749394	    -10.89004070	     15.06443436	     33.42444655	     75.48827467
      3.52083330	     -2.74824037	     -0.12114623	      0.24078559	      0.44981675	      0.91266214	     -0.04960360	      0.54208376	     -0.70685505	     -4.53972625	      0.55776431	      0.00973482	      3.87021507	     -5.79556029	     -7.49999987	      0.43927880	     -0.74055826	      1.08750073	      0.24251047	      0.00423261	      3.85357677	     -1.98980101	     -7.49999987	     -5.24130646	      0.77866291	      1.19569747	      0.50410709	     -9.13022111	      9.39993596	     30.60966492	     68.41443763	     -1.56701118	    -10.96438948	     14.95730784	     33.43065748	     74.74611962
      3.52500000	     -2.66052914	     -0.15540766	      0.33238222	      0.45034914	      0.91329541	     -0.05204615	      0.42690358	     -0.64817314	     -4.77712758	      0.55568756	      0.00969858	      3.92616409	     -5.50356336	     -7.49999987	      0.35829794	     -0.81919726	      1.04177704	      0.23819996	      0.00415737	      3.87962173	     -1.81803522	     -7.49999987	     -5.32496534	      0.80701337	      1.20037812	      0.42581415	     -9.11218255	      9.25679907	     30.61599879	     67.94490161	     -1.65638270	    -10.99683259	     14.90345672	     33.47719141	     73.98141568
